<?xml version="1.0" standalone="no"?>
<!DOCTYPE svg PUBLIC "-//W3C//DTD SVG 20010904//EN"
 "http://www.w3.org/TR/2001/REC-SVG-20010904/DTD/svg10.dtd">
<svg version="1.0" xmlns="http://www.w3.org/2000/svg"
 width="2205.000000pt" height="2205.000000pt" viewBox="0 0 2205.000000 2205.000000"
 preserveAspectRatio="xMidYMid meet">
<metadata>
Created by potrace 1.11, written by Peter Selinger 2001-2013
</metadata>
<g transform="translate(0.000000,2205.000000) scale(0.100000,-0.100000)"
fill="#000000" stroke="none">
<path d="M6325 19689 c-86 -13 -175 -43 -293 -99 -232 -111 -297 -168 -317
-278 -9 -53 -9 -187 1 -204 5 -9 35 -37 66 -62 57 -46 76 -71 83 -104 7 -40
16 -168 20 -307 6 -187 16 -429 20 -475 9 -92 6 -167 -10 -203 -29 -68 -23
-97 37 -199 31 -51 59 -104 63 -118 11 -35 8 -90 -6 -107 -7 -7 -12 -35 -13
-62 -1 -39 9 -68 57 -162 63 -125 77 -190 53 -260 -17 -49 -9 -62 92 -143 103
-83 116 -103 110 -160 -8 -64 -43 -130 -110 -204 -32 -35 -61 -75 -64 -89 -7
-25 -1 -55 36 -218 10 -44 26 -118 35 -165 9 -46 37 -150 62 -230 63 -201 92
-305 103 -375 5 -33 12 -69 14 -80 4 -21 12 -92 22 -192 3 -32 7 -74 10 -93 3
-19 7 -50 10 -69 7 -52 37 -111 87 -172 68 -82 77 -109 61 -194 -21 -116 -20
-122 34 -174 26 -26 63 -60 83 -76 59 -49 58 -61 -16 -159 -36 -48 -65 -96
-65 -105 0 -18 45 -93 76 -126 29 -31 69 -87 87 -120 43 -85 84 -257 102 -430
14 -132 23 -193 42 -258 15 -54 21 -61 82 -104 36 -26 76 -58 88 -72 37 -44
98 -226 117 -353 3 -21 10 -57 15 -80 5 -24 12 -68 16 -98 3 -30 8 -62 10 -70
2 -8 6 -46 10 -85 18 -205 43 -284 116 -365 53 -59 70 -112 84 -255 11 -114
35 -188 90 -285 59 -103 98 -199 111 -270 18 -101 36 -162 72 -245 63 -147 70
-175 98 -365 12 -82 35 -137 82 -195 50 -61 77 -125 86 -205 3 -25 8 -63 10
-85 3 -22 8 -62 10 -90 16 -150 36 -203 111 -291 51 -60 55 -69 55 -115 0 -66
7 -77 85 -134 75 -56 85 -79 59 -137 -12 -27 -18 -65 -18 -112 -1 -164 35
-276 124 -387 107 -134 145 -244 156 -459 9 -186 12 -192 89 -227 52 -23 81
-51 98 -93 24 -58 5 -135 -47 -197 -42 -50 -66 -105 -61 -143 4 -29 22 -51
104 -130 83 -78 106 -107 131 -162 32 -71 75 -234 110 -413 41 -211 54 -242
165 -390 24 -33 53 -88 64 -123 32 -97 83 -387 96 -542 14 -171 28 -256 47
-293 5 -10 32 -43 59 -73 27 -30 50 -61 50 -69 1 -8 2 -21 3 -27 1 -7 -9 -35
-22 -63 -29 -58 -39 -152 -23 -211 6 -22 29 -68 50 -102 45 -69 57 -106 66
-207 9 -98 21 -130 74 -200 57 -74 63 -85 101 -162 50 -103 73 -205 74 -323 0
-136 -9 -181 -59 -279 -48 -96 -45 -113 36 -195 27 -26 49 -52 49 -56 0 -7
-73 -77 -141 -136 -64 -54 -62 -59 43 -124 26 -16 54 -40 63 -54 9 -14 25 -81
36 -148 34 -227 71 -308 181 -398 34 -28 68 -60 73 -70 6 -10 8 -41 5 -71 -8
-74 12 -144 75 -269 58 -116 113 -257 154 -395 22 -74 41 -110 106 -205 88
-126 94 -137 167 -320 98 -246 105 -253 348 -323 88 -26 195 -52 195 -48 0 1
12 -2 26 -8 61 -23 498 -35 679 -19 109 10 137 18 279 83 111 51 148 64 372
134 66 20 121 46 177 83 45 29 116 75 159 103 80 50 218 146 240 164 7 6 15
11 18 11 4 0 13 6 21 14 7 8 25 24 40 35 14 11 40 54 58 98 29 70 79 160 95
173 4 3 24 30 46 60 22 30 42 57 45 60 15 13 292 434 385 585 37 61 110 170
162 244 52 74 132 196 176 270 120 201 169 264 272 346 95 75 115 100 115 142
0 21 -4 53 -9 70 -8 27 -5 41 15 78 28 54 211 323 372 550 126 176 162 241
197 352 31 95 63 150 133 225 32 33 64 72 72 86 8 15 18 29 21 32 5 4 40 87
118 275 143 343 217 487 294 573 93 103 136 201 171 390 9 45 23 119 32 163
18 98 57 177 119 242 66 71 92 122 120 238 14 57 30 112 35 121 6 10 10 23 10
30 0 12 68 121 117 187 15 21 18 50 19 206 l2 182 70 104 c142 214 158 270
177 644 8 167 21 293 36 350 5 22 24 78 40 124 30 84 30 85 34 360 5 314 8
345 39 415 30 68 34 86 56 251 26 185 25 182 67 319 29 94 34 122 24 135 -71
99 -82 142 -86 361 -4 149 1 189 49 408 30 142 30 258 -1 317 -23 43 -35 55
-101 98 -23 15 -42 35 -43 45 0 9 -2 26 -5 37 -2 11 -6 40 -9 65 -4 25 -11 72
-16 105 -14 93 -11 131 20 255 33 130 33 128 -38 214 -47 56 -44 38 -45 234
l-1 154 -35 30 c-126 110 -143 135 -142 216 0 44 7 65 42 123 49 80 52 73 -54
153 -40 30 -77 60 -83 68 -13 15 -29 97 -39 188 -3 36 -8 74 -10 85 -2 11 -8
44 -14 73 -25 138 -89 268 -171 347 -26 25 -60 69 -75 98 -15 29 -77 133 -139
232 -135 218 -180 301 -240 442 -76 178 -88 205 -129 283 -37 72 -112 185
-145 220 -89 93 -181 211 -209 268 -55 110 -107 186 -196 287 -39 44 -73 82
-76 85 -4 3 -73 86 -155 185 -146 176 -209 244 -370 395 -44 41 -94 94 -110
116 -16 23 -44 52 -62 64 -49 33 -186 90 -428 175 -389 137 -538 181 -685 204
-212 33 -661 35 -850 5 -166 -27 -443 -125 -625 -221 -157 -82 -168 -214 -23
-264 46 -15 78 -17 238 -13 102 2 196 6 210 8 14 2 63 7 110 10 47 3 126 9
175 13 121 9 257 9 328 -1 81 -10 206 -33 245 -45 17 -5 32 -8 32 -6 0 7 204
-66 218 -77 6 -6 12 -8 12 -5 0 21 235 -133 390 -256 9 -7 49 -34 90 -61 41
-27 86 -56 100 -66 14 -9 65 -39 115 -66 113 -62 197 -145 290 -284 103 -156
233 -325 320 -415 97 -101 146 -175 181 -272 78 -221 109 -296 158 -383 30
-52 68 -124 87 -159 33 -66 116 -156 223 -245 118 -99 138 -150 235 -581 47
-207 141 -413 239 -523 l38 -44 3 -221 c3 -225 4 -257 15 -382 12 -126 35
-238 89 -423 39 -136 40 -145 28 -190 -38 -132 -44 -253 -27 -492 9 -133 17
-226 21 -255 2 -16 7 -66 10 -110 19 -226 93 -446 184 -543 22 -24 38 -51 36
-61 -2 -9 -23 -60 -48 -112 -46 -95 -96 -249 -114 -344 -2 -11 -10 -51 -18
-90 -7 -38 -16 -88 -20 -110 -3 -23 -7 -50 -9 -60 -2 -11 -7 -49 -11 -85 -3
-36 -8 -76 -10 -90 -2 -14 -7 -47 -10 -75 -12 -107 -16 -141 -20 -165 -3 -14
-7 -41 -10 -60 -12 -77 -49 -207 -70 -250 -34 -68 -87 -237 -109 -350 -34
-174 -56 -291 -60 -320 -10 -62 -36 -260 -42 -314 -10 -97 -35 -231 -51 -281
-15 -46 -30 -73 -116 -199 -27 -41 -62 -140 -71 -206 -8 -57 -43 -153 -108
-298 -33 -76 -74 -180 -90 -232 -37 -122 -46 -140 -193 -360 -126 -188 -206
-337 -264 -490 -18 -47 -37 -94 -41 -105 -5 -11 -21 -51 -35 -90 -50 -131
-164 -331 -250 -440 -39 -48 -69 -106 -86 -160 -16 -54 -39 -86 -129 -180 -87
-90 -112 -132 -136 -231 -23 -93 -37 -119 -142 -261 -50 -68 -108 -160 -131
-205 -23 -47 -76 -126 -121 -182 -93 -115 -127 -168 -203 -321 -61 -122 -100
-183 -228 -355 -47 -63 -159 -218 -249 -345 -183 -257 -234 -324 -333 -439
-37 -44 -88 -111 -114 -150 -63 -97 -81 -118 -261 -298 -156 -157 -157 -158
-242 -189 -126 -46 -182 -35 -272 50 -21 19 -38 41 -38 48 0 7 -4 13 -10 13
-5 0 -10 5 -10 11 0 25 -105 140 -249 273 -84 77 -135 147 -171 232 -48 115
-84 166 -206 289 -164 165 -238 290 -339 570 -25 72 -82 202 -126 290 -43 89
-79 164 -79 168 0 12 -104 273 -140 352 -18 39 -61 120 -96 182 -62 108 -75
145 -89 260 -10 78 -43 170 -83 230 l-37 56 -6 186 -5 186 -51 80 c-99 158
-136 295 -148 554 -6 142 -16 173 -99 306 -49 80 -75 133 -82 170 -2 11 -6 30
-8 43 -7 31 -16 148 -20 251 -2 46 -8 86 -13 91 -4 4 -30 13 -58 20 -91 23
-190 51 -219 62 l-29 12 68 60 67 61 -10 60 c-6 33 -13 85 -17 115 -21 195
-30 231 -79 322 -44 84 -61 129 -71 203 -3 22 -8 52 -11 67 -3 15 -7 39 -9 55
-12 93 -32 144 -78 199 -99 119 -127 258 -76 374 31 69 27 110 -19 203 -60
123 -78 165 -101 242 -22 76 -57 219 -66 275 -3 19 -10 53 -15 75 -5 22 -11
56 -15 75 -38 238 -138 641 -185 745 -4 11 -32 76 -61 145 -28 69 -60 143 -69
165 -23 52 -44 114 -74 222 -25 89 -28 101 -45 185 -43 206 -83 334 -130 421
-25 45 -72 168 -117 304 -116 351 -142 435 -184 598 -21 82 -45 176 -54 207
-29 106 -76 216 -126 292 -57 85 -61 113 -29 183 50 111 15 344 -73 482 -50
79 -74 180 -104 431 -3 30 -8 67 -9 82 -2 14 -6 57 -10 95 -3 37 -10 113 -15
168 -19 186 -25 218 -56 285 -25 55 -51 156 -60 240 -3 25 -7 52 -9 60 -2 8
-7 33 -10 55 -16 118 -34 184 -75 275 -45 99 -51 136 -49 285 0 61 1 160 2
220 2 235 -29 412 -90 512 -19 32 -39 69 -45 83 -18 46 -11 143 21 287 l19 84
-38 107 c-67 185 -74 222 -74 387 0 132 8 286 19 380 12 97 18 299 19 670 2
403 3 422 23 473 45 111 134 217 209 248 19 8 60 17 92 21 31 3 431 6 887 7
457 1 840 5 853 10 37 13 22 39 -41 69 -56 27 -197 68 -282 81 -49 8 -83 14
-155 26 -71 12 -102 17 -170 25 -30 4 -62 9 -70 10 -16 3 -92 13 -150 21 -107
13 -305 56 -338 73 -9 5 -44 21 -77 37 -51 24 -179 105 -195 123 -3 4 -23 21
-45 40 -22 18 -76 68 -120 110 -154 148 -211 180 -423 240 -287 81 -522 113
-667 90z"/>
</g>
</svg>
